<mxfile modified="2023-11-05T11:48:56.925Z" host="app.diagrams.net" agent="Mozilla/5.0 (Windows NT 10.0; Win64; x64) AppleWebKit/537.36 (KHTML, like Gecko) Chrome/118.0.0.0 Safari/537.36" etag="O_oRiqPY3OLb7l6QCiXc" version="22.0.8" type="github">
  <diagram id="C2fSY1v2SiZeoUbDoYyL" name="Page-1">
    <mxGraphModel dx="1434" dy="750" grid="1" gridSize="10" guides="1" tooltips="1" connect="1" arrows="1" fold="1" page="1" pageScale="1" pageWidth="1169" pageHeight="827" math="0" shadow="0">
      <root>
        <mxCell id="0" />
        <mxCell id="1" parent="0" />
        <mxCell id="3ne1QswCM8ZiEu4GHsYG-31" value="Company Goods Delivery Procedure" style="text;html=1;strokeColor=none;fillColor=none;align=center;verticalAlign=middle;whiteSpace=wrap;rounded=0;fontStyle=1;fontSize=20;fontColor=#4D4D4D;" parent="1" vertex="1">
          <mxGeometry x="189.5" y="50" width="790" height="30" as="geometry" />
        </mxCell>
        <mxCell id="3ne1QswCM8ZiEu4GHsYG-32" value="" style="line;strokeWidth=2;html=1;fontSize=20;fontColor=#4D4D4D;" parent="1" vertex="1">
          <mxGeometry x="103.5" y="80" width="960" height="10" as="geometry" />
        </mxCell>
        <mxCell id="JYK7NFnvmHLZQDQHn-Lk-5" value="&lt;font style=&quot;font-size: 14px;&quot;&gt;&lt;b&gt;Granted&lt;br&gt;Access&lt;br&gt;&lt;/b&gt;&lt;/font&gt;" style="ellipse;whiteSpace=wrap;html=1;aspect=fixed;strokeWidth=4;fillColor=#fff2cc;strokeColor=#666666;" vertex="1" parent="1">
          <mxGeometry x="950" y="277.5" width="100" height="100" as="geometry" />
        </mxCell>
        <mxCell id="JYK7NFnvmHLZQDQHn-Lk-12" value="&lt;font style=&quot;font-size: 14px;&quot;&gt;&lt;b&gt;Uploading&lt;/b&gt;&lt;/font&gt;" style="ellipse;whiteSpace=wrap;html=1;aspect=fixed;strokeWidth=4;fillColor=#fff2cc;strokeColor=#666666;" vertex="1" parent="1">
          <mxGeometry x="950" y="482.5" width="100" height="100" as="geometry" />
        </mxCell>
        <mxCell id="JYK7NFnvmHLZQDQHn-Lk-13" value="&lt;font style=&quot;font-size: 14px;&quot;&gt;&lt;b&gt;Authenticating&lt;/b&gt;&lt;/font&gt;" style="ellipse;whiteSpace=wrap;html=1;aspect=fixed;strokeWidth=4;fillColor=#fff2cc;strokeColor=#666666;" vertex="1" parent="1">
          <mxGeometry x="670" y="140" width="100" height="100" as="geometry" />
        </mxCell>
        <mxCell id="JYK7NFnvmHLZQDQHn-Lk-14" value="&lt;span style=&quot;font-size: 14px;&quot;&gt;&lt;b&gt;Configurating&lt;/b&gt;&lt;/span&gt;" style="ellipse;whiteSpace=wrap;html=1;aspect=fixed;strokeWidth=4;fillColor=#fff2cc;strokeColor=#666666;" vertex="1" parent="1">
          <mxGeometry x="390" y="482.5" width="100" height="100" as="geometry" />
        </mxCell>
        <mxCell id="JYK7NFnvmHLZQDQHn-Lk-15" value="&lt;font style=&quot;font-size: 14px;&quot;&gt;&lt;b&gt;Reading&lt;/b&gt;&lt;/font&gt;" style="ellipse;whiteSpace=wrap;html=1;aspect=fixed;strokeWidth=4;fillColor=#fff2cc;strokeColor=#666666;" vertex="1" parent="1">
          <mxGeometry x="400" y="190" width="100" height="100" as="geometry" />
        </mxCell>
        <mxCell id="JYK7NFnvmHLZQDQHn-Lk-16" value="&lt;font style=&quot;font-size: 14px;&quot;&gt;&lt;b&gt;Stopped&lt;/b&gt;&lt;/font&gt;" style="ellipse;whiteSpace=wrap;html=1;aspect=fixed;strokeWidth=4;fillColor=#fff2cc;strokeColor=#666666;" vertex="1" parent="1">
          <mxGeometry x="103.5" y="300" width="100" height="100" as="geometry" />
        </mxCell>
        <mxCell id="JYK7NFnvmHLZQDQHn-Lk-18" value="&lt;span style=&quot;font-size: 14px;&quot;&gt;&lt;b&gt;Writing&lt;/b&gt;&lt;/span&gt;" style="ellipse;whiteSpace=wrap;html=1;aspect=fixed;strokeWidth=4;fillColor=#fff2cc;strokeColor=#666666;" vertex="1" parent="1">
          <mxGeometry x="650" y="500" width="100" height="100" as="geometry" />
        </mxCell>
        <mxCell id="JYK7NFnvmHLZQDQHn-Lk-21" value="" style="curved=1;endArrow=classic;html=1;rounded=0;exitX=1;exitY=0.5;exitDx=0;exitDy=0;entryX=0.98;entryY=0.6;entryDx=0;entryDy=0;entryPerimeter=0;" edge="1" parent="1" source="JYK7NFnvmHLZQDQHn-Lk-5" target="JYK7NFnvmHLZQDQHn-Lk-12">
          <mxGeometry width="50" height="50" relative="1" as="geometry">
            <mxPoint x="1020" y="412.5" as="sourcePoint" />
            <mxPoint x="1260" y="522.5" as="targetPoint" />
            <Array as="points">
              <mxPoint x="1120" y="352.5" />
              <mxPoint x="1130" y="382.5" />
              <mxPoint x="1130" y="482.5" />
              <mxPoint x="1110" y="532.5" />
            </Array>
          </mxGeometry>
        </mxCell>
        <mxCell id="JYK7NFnvmHLZQDQHn-Lk-32" value="&lt;font style=&quot;font-size: 15px;&quot;&gt;Unlocked&lt;br&gt;&lt;b&gt;[Upload]&lt;/b&gt;&lt;br&gt;&lt;/font&gt;" style="edgeLabel;html=1;align=center;verticalAlign=middle;resizable=0;points=[];" vertex="1" connectable="0" parent="JYK7NFnvmHLZQDQHn-Lk-21">
          <mxGeometry x="-0.1572" y="-3" relative="1" as="geometry">
            <mxPoint as="offset" />
          </mxGeometry>
        </mxCell>
        <mxCell id="JYK7NFnvmHLZQDQHn-Lk-33" value="" style="curved=1;endArrow=classic;html=1;rounded=0;exitX=1;exitY=0.5;exitDx=0;exitDy=0;entryX=0;entryY=0.5;entryDx=0;entryDy=0;" edge="1" parent="1" source="JYK7NFnvmHLZQDQHn-Lk-18" target="JYK7NFnvmHLZQDQHn-Lk-12">
          <mxGeometry width="50" height="50" relative="1" as="geometry">
            <mxPoint x="750" y="410" as="sourcePoint" />
            <mxPoint x="800" y="360" as="targetPoint" />
            <Array as="points">
              <mxPoint x="890" y="550" />
            </Array>
          </mxGeometry>
        </mxCell>
        <mxCell id="JYK7NFnvmHLZQDQHn-Lk-34" value="&lt;font style=&quot;font-size: 15px;&quot;&gt;Write Done&lt;br&gt;&lt;b&gt;[Upload]&lt;/b&gt;&lt;br&gt;&lt;/font&gt;" style="edgeLabel;html=1;align=center;verticalAlign=middle;resizable=0;points=[];" vertex="1" connectable="0" parent="JYK7NFnvmHLZQDQHn-Lk-33">
          <mxGeometry x="0.0533" y="5" relative="1" as="geometry">
            <mxPoint as="offset" />
          </mxGeometry>
        </mxCell>
        <mxCell id="JYK7NFnvmHLZQDQHn-Lk-35" value="" style="curved=1;endArrow=classic;html=1;rounded=0;exitX=1;exitY=0.5;exitDx=0;exitDy=0;entryX=0;entryY=0.5;entryDx=0;entryDy=0;" edge="1" parent="1" source="JYK7NFnvmHLZQDQHn-Lk-14" target="JYK7NFnvmHLZQDQHn-Lk-18">
          <mxGeometry width="50" height="50" relative="1" as="geometry">
            <mxPoint x="750" y="410" as="sourcePoint" />
            <mxPoint x="800" y="360" as="targetPoint" />
            <Array as="points">
              <mxPoint x="490" y="550" />
            </Array>
          </mxGeometry>
        </mxCell>
        <mxCell id="JYK7NFnvmHLZQDQHn-Lk-37" value="&lt;span style=&quot;font-size: 15px;&quot;&gt;Detect&lt;br&gt;&lt;b&gt;[Write]&lt;/b&gt;&lt;br&gt;&lt;/span&gt;" style="edgeLabel;html=1;align=center;verticalAlign=middle;resizable=0;points=[];" vertex="1" connectable="0" parent="JYK7NFnvmHLZQDQHn-Lk-35">
          <mxGeometry x="0.0082" y="2" relative="1" as="geometry">
            <mxPoint as="offset" />
          </mxGeometry>
        </mxCell>
      </root>
    </mxGraphModel>
  </diagram>
</mxfile>
